<svg width="513" height="256" viewBox="0 0 513 256" fill="none" xmlns="http://www.w3.org/2000/svg">
<path d="M58.957 143.434C56.4831 143.434 54.1393 142.75 51.9258 141.383C49.7122 140.016 47.8893 138.225 46.457 136.012C45.0898 133.733 44.4062 131.259 44.4062 128.59C44.4062 125.921 45.0898 123.479 46.457 121.266C47.8893 118.987 49.7122 117.197 51.9258 115.895C54.1393 114.527 56.4831 113.844 58.957 113.844H197.043C199.647 113.844 202.056 114.527 204.27 115.895C206.483 117.197 208.241 118.987 209.543 121.266C210.91 123.479 211.594 125.921 211.594 128.59C211.594 131.259 210.91 133.733 209.543 136.012C208.241 138.225 206.483 140.016 204.27 141.383C202.056 142.75 199.647 143.434 197.043 143.434H58.957Z" fill="#007AFF" style="fill:#007AFF;fill:color(display-p3 0.0000 0.4784 1.0000);fill-opacity:1;"/>
<path d="M399.844 197.535C399.844 201.572 398.379 205.022 395.449 207.887C392.585 210.816 389.102 212.281 385 212.281C380.898 212.281 377.415 210.816 374.551 207.887C371.686 205.022 370.254 201.572 370.254 197.535V59.5469C370.254 55.4453 371.686 51.9622 374.551 49.0977C377.415 46.168 380.898 44.7031 385 44.7031C389.102 44.7031 392.585 46.168 395.449 49.0977C398.379 51.9622 399.844 55.4453 399.844 59.5469V197.535ZM316.055 143.336C311.953 143.336 308.438 141.904 305.508 139.039C302.643 136.109 301.211 132.594 301.211 128.492C301.211 124.391 302.643 120.908 305.508 118.043C308.438 115.113 311.953 113.648 316.055 113.648H454.043C458.079 113.648 461.53 115.113 464.395 118.043C467.324 120.908 468.789 124.391 468.789 128.492C468.789 132.594 467.324 136.109 464.395 139.039C461.53 141.904 458.079 143.336 454.043 143.336H316.055Z" fill="#007AFF" style="fill:#007AFF;fill:color(display-p3 0.0000 0.4784 1.0000);fill-opacity:1;"/>
</svg>
