<svg width="820" height="819" viewBox="0 0 820 819" fill="none" xmlns="http://www.w3.org/2000/svg">
<path d="M759 409.5C759 478.625 738.502 546.197 700.099 603.672C661.695 661.147 607.111 705.943 543.248 732.396C479.386 758.849 409.113 765.77 341.316 752.285C273.52 738.799 211.245 705.513 162.367 656.634C113.488 607.756 80.2015 545.481 66.7158 477.685C53.2302 409.888 60.1513 339.616 86.604 275.753C113.057 211.89 157.853 157.306 215.328 118.902C272.803 80.4982 340.375 60.0002 409.499 60" stroke="#007AFF" stroke-opacity="0.25" style="stroke:#007AFF;stroke:color(display-p3 0.0000 0.4784 1.0000);stroke-opacity:0.25;" stroke-width="120"/>
<path d="M409.598 60C478.723 60 546.295 80.4978 603.77 118.901C661.245 157.305 706.041 211.889 732.494 275.752C758.947 339.615 765.868 409.887 752.383 477.684C738.897 545.48 705.611 607.755 656.733 656.633C607.854 705.512 545.579 738.799 477.783 752.284C409.987 765.77 339.714 758.849 275.851 732.396C211.988 705.943 157.404 661.147 119 603.673" stroke="#007AFF" style="stroke:#007AFF;stroke:color(display-p3 0.0000 0.4784 1.0000);stroke-opacity:1;" stroke-width="120" stroke-linecap="round"/>
</svg>
